<svg width="1200" height="800" viewBox="0 0 1200 800" fill="none" xmlns="http://www.w3.org/2000/svg">
  <rect width="1200" height="800" rx="40" fill="#0b0907"/>
  <path d="M1180 720C1180 780 1114.72 830 1026.8 830H173.2C85.28 830 20 780 20 720V80C20 20 85.28 -30 173.2 -30H1026.8C1114.72 -30 1180 20 1180 80V720Z" fill="url(#paint0_linear)" fill-opacity="0.06"/>
  <rect x="80" y="120" width="1040" height="560" rx="32" fill="url(#paint1_linear)"/>
  <circle cx="420" cy="400" r="136" fill="#1e1915" stroke="#c9a66b" stroke-width="4"/>
  <path d="M310 380C360 440 430 470 500 460" stroke="#f5e8d8" stroke-width="25" stroke-linecap="round"/>
  <circle cx="760" cy="370" r="122" fill="#1e1915" stroke="#c9a66b" stroke-width="4"/>
  <path d="M710 330H810" stroke="#f5e8d8" stroke-width="18" stroke-linecap="round"/>
  <path d="M760 330V430" stroke="#f5e8d8" stroke-width="18" stroke-linecap="round"/>
  <text x="100" y="700" fill="#fff" font-size="42" font-family="Inter, sans-serif">Modern fine dining in New York</text>
  <defs>
    <linearGradient id="paint0_linear" x1="600" y1="-30" x2="600" y2="830" gradientUnits="userSpaceOnUse">
      <stop stop-color="#fff7e6"/>
      <stop offset="1" stop-color="#fff7e6" stop-opacity="0"/>
    </linearGradient>
    <linearGradient id="paint1_linear" x1="600" y1="120" x2="600" y2="680" gradientUnits="userSpaceOnUse">
      <stop stop-color="#2c2621"/>
      <stop offset="1" stop-color="#100e0b"/>
    </linearGradient>
  </defs>
</svg>
